<?xml version="1.0" standalone="no"?>
<!DOCTYPE svg PUBLIC "-//W3C//DTD SVG 20010904//EN"
 "http://www.w3.org/TR/2001/REC-SVG-20010904/DTD/svg10.dtd">
<svg version="1.0" xmlns="http://www.w3.org/2000/svg"
 width="700.000000pt" height="700.000000pt" viewBox="0 0 700.000000 700.000000"
 preserveAspectRatio="xMidYMid meet">
<metadata>
Created by potrace 1.14, written by Peter Selinger 2001-2017
</metadata>
<g transform="translate(0.000000,700.000000) scale(0.100000,-0.100000)"
fill="#000000" stroke="none">
<path d="M2808 6415 c-1 -1 -28 -5 -58 -8 -99 -11 -214 -59 -305 -128 -133
-100 -229 -288 -239 -466 -3 -43 -7 -57 -17 -54 -39 11 -241 7 -304 -6 -256
-52 -474 -227 -584 -467 -67 -147 -86 -357 -46 -513 27 -102 62 -185 105 -250
40 -59 41 -65 5 -70 -49 -7 -196 -59 -259 -93 -427 -224 -625 -725 -468 -1180
64 -185 182 -343 354 -473 l36 -28 -33 -72 c-31 -68 -60 -159 -74 -237 -3 -19
-6 -102 -6 -185 1 -131 4 -163 28 -247 75 -275 233 -470 484 -597 34 -18 65
-32 68 -32 2 0 22 -7 42 -16 83 -34 214 -59 329 -62 27 -1 32 -5 38 -33 23
-118 123 -291 224 -386 160 -151 345 -225 562 -224 238 0 424 84 492 221 l23
46 0 2670 0 2670 -27 50 c-45 86 -125 147 -211 160 -44 7 -155 14 -159 10z"/>
<path d="M4056 6408 c-108 -14 -184 -67 -234 -161 l-27 -52 -3 -2650 c-2
-2441 -1 -2653 14 -2700 32 -97 98 -160 214 -205 389 -152 839 25 1017 400 34
70 63 152 63 175 0 8 3 15 8 16 4 0 41 2 84 4 325 17 652 226 789 505 65 131
84 195 104 340 7 47 7 218 0 252 -3 16 -7 38 -9 50 -13 73 -52 191 -86 257
l-19 39 52 40 c311 235 453 624 368 1004 -26 113 -93 260 -161 349 -156 206
-345 327 -602 383 l-28 6 36 56 c240 376 135 882 -232 1117 -153 97 -263 129
-444 129 -69 0 -134 -1 -144 -3 -17 -4 -19 3 -22 51 -13 223 -140 428 -324
524 -128 67 -276 93 -414 74z"/>
</g>
</svg>
